<svg id="Camada_1" data-name="Camada 1" xmlns="http://www.w3.org/2000/svg" viewBox="0 0 512 512">
  <title>upload-solid</title>
  <path d="M296,384H216a23.9,23.9,0,0,1-24-24V192H104.3c-17.8,0-26.7-21.5-14.1-34.1L242.3,5.7a19.4,19.4,0,0,1,27.3,0L421.8,157.9c12.6,12.6,3.7,34.1-14.1,34.1H320V360A23.9,23.9,0,0,1,296,384Zm216-8V488a23.9,23.9,0,0,1-24,24H24A23.9,23.9,0,0,1,0,488V376a23.9,23.9,0,0,1,24-24H160v8a56,56,0,0,0,56,56h80a56,56,0,0,0,56-56v-8H488A23.9,23.9,0,0,1,512,376ZM388,464a20,20,0,1,0-20,20A20.1,20.1,0,0,0,388,464Zm64,0a20,20,0,1,0-20,20A20.1,20.1,0,0,0,452,464Z" style="fill: #fff"/>
</svg>
